<svg xmlns="http://www.w3.org/2000/svg" viewBox="0 0 79 15">
    <path fill="#fff" d="M25.351 12.713h-6.957V1.351h2.475v9.308h4.482v2.054Zm4.188.187c-1.09 0-2.003-.4-2.74-1.199-.736-.809-1.105-1.805-1.105-2.988 0-1.193.369-2.19 1.105-2.988.737-.81 1.65-1.214 2.74-1.214.487 0 .944.093 1.37.28.435.187.783.44 1.042.763v-.856h2.428v8.015h-2.428v-.856a2.67 2.67 0 0 1-1.027.763c-.426.187-.887.28-1.385.28Zm-1.432-4.187c0 .602.186 1.105.56 1.51a1.81 1.81 0 0 0 1.385.607c.56 0 1.027-.203 1.401-.607.373-.405.56-.908.56-1.51 0-.612-.186-1.115-.56-1.51a1.827 1.827 0 0 0-1.4-.607c-.561 0-1.028.203-1.402.607-.363.395-.544.898-.544 1.51Zm10.868-2.085v3.144c0 .332.088.591.264.778.187.176.441.264.763.264.207 0 .405-.03.591-.093.198-.073.38-.177.545-.311v2.147a3.459 3.459 0 0 1-.762.25c-.28.062-.566.093-.856.093-.914 0-1.64-.254-2.18-.763-.529-.508-.793-1.209-.793-2.1v-3.41H35.27v-1.93h1.276v-1.71l2.428-.732v2.444h2.008v1.93h-2.008ZM43.439.931h.03c.385 0 .706.135.966.405.27.26.404.58.404.965 0 .373-.134.695-.404.965-.27.26-.592.389-.965.389h-.031c-.384 0-.711-.13-.981-.39a1.31 1.31 0 0 1-.39-.964c0-.384.13-.706.39-.965.27-.27.597-.405.98-.405ZM42.24 12.713V4.698h2.428v8.015H42.24Zm7.006-6.085v3.144c0 .332.089.591.265.778.187.176.441.264.763.264.207 0 .404-.03.591-.093.197-.073.379-.177.545-.311v2.147a3.457 3.457 0 0 1-.763.25c-.28.062-.565.093-.856.093-.913 0-1.64-.254-2.179-.763-.529-.508-.794-1.209-.794-2.1v-3.41h-1.276v-1.93h1.276v-1.71l2.428-.732v2.444h2.008v1.93h-2.008Zm7.094 4.124c.395 0 .711-.14.95-.42.25-.28.374-.638.374-1.074v-4.56h2.443v8.015h-2.443v-.778c-.239.3-.55.54-.934.716a3.066 3.066 0 0 1-1.23.249c-.892 0-1.598-.27-2.117-.81-.518-.55-.778-1.28-.778-2.194V4.698h2.444v4.56c0 .446.114.81.342 1.09.239.27.555.404.95.404Zm4.816-2.039c0-1.193.369-2.19 1.105-2.988.737-.81 1.65-1.214 2.74-1.214.498 0 .96.098 1.385.296.436.186.778.435 1.027.747V.884h2.428v11.83h-2.428v-.857c-.239.311-.576.566-1.012.763-.435.187-.902.28-1.4.28-1.09 0-2.003-.4-2.74-1.199-.736-.809-1.105-1.805-1.105-2.988Zm6.32 0c0-.612-.188-1.115-.561-1.51a1.826 1.826 0 0 0-1.401-.607 1.81 1.81 0 0 0-1.385.607c-.374.405-.56.908-.56 1.51s.186 1.105.56 1.51a1.81 1.81 0 0 0 1.385.607c.56 0 1.028-.203 1.4-.607.374-.405.561-.908.561-1.51ZM75.37 12.9c-1.276 0-2.34-.394-3.19-1.183-.85-.789-1.276-1.785-1.276-2.988 0-1.173.404-2.169 1.214-2.989.809-.82 1.774-1.23 2.895-1.23 1.297 0 2.283.447 2.957 1.34.684.881.97 2.049.856 3.501h-5.65c.125.498.405.882.84 1.152.447.27 1.002.405 1.666.405.446 0 .897-.068 1.354-.203.457-.145.85-.337 1.183-.576v2.07c-.363.229-.794.4-1.292.514a6.395 6.395 0 0 1-1.556.187Zm-.388-6.46c-.415 0-.779.125-1.09.374-.301.239-.519.571-.654.996h3.347a1.542 1.542 0 0 0-.514-.98c-.29-.26-.654-.39-1.09-.39Z"/>
    <path fill="#0080FF" fill-rule="evenodd" d="M0 6.709v.011h1.613a5.471 5.471 0 0 1 10.917 0h1.62A7.075 7.075 0 0 0 7.074 0 7.076 7.076 0 0 0 0 6.709Z" clip-rule="evenodd"/>
    <path fill="#fff" fill-rule="evenodd" d="M0 7.424a7.07 7.07 0 0 0 7.075 6.725 7.07 7.07 0 0 0 7.074-6.725H0Z" clip-rule="evenodd"/>
    <path fill="#E63948" fill-rule="evenodd" d="M2.323 6.72H4.25a2.848 2.848 0 0 1 2.825-2.486A2.853 2.853 0 0 1 9.893 6.72h1.933a4.755 4.755 0 0 0-4.752-4.405 4.755 4.755 0 0 0-4.75 4.405Z" clip-rule="evenodd"/>
    <path fill="#FEC61A" fill-rule="evenodd" d="M4.966 6.72h4.211a2.137 2.137 0 0 0-2.103-1.787c-1.064 0-1.94.772-2.108 1.787Z" clip-rule="evenodd"/>
</svg>